<svg width="32" height="32" viewBox="0 0 32 32" fill="none" xmlns="http://www.w3.org/2000/svg">
<g clip-path="url(#clip0_1769_17349)">
<path d="M20.2001 5.03955C19.7801 5.03955 19.4198 5.29955 19.8798 5.53955C20.9381 5.91813 22.0207 6.2254 23.12 6.45947L28.2401 7.73975L29.6405 8.09961H29.9804C29.1179 6.60385 28.0242 5.25385 26.7401 4.09961H26.2206C23.3406 4.57961 20.3601 4.99955 20.2001 5.03955Z" fill="#438A43"/>
<path d="M23.4004 10.3994C21.9028 9.65865 20.3435 9.04986 18.7402 8.5796C16.1527 7.84028 13.6147 6.9383 11.1406 5.87941C10.0806 5.21941 10.7002 4.45941 12.7402 3.87941C16.4015 3.17868 20.1016 2.69788 23.8203 2.43947H24.5205C22.0984 0.915696 19.3116 0.0694599 16.4512 -0.0112173C13.5908 -0.0918946 10.761 0.596143 8.25685 1.98097C5.75272 3.3658 3.66612 5.39667 2.21388 7.86232C0.761638 10.328 -0.0030537 13.138 9.16485e-06 15.9995C0.00706185 17.3492 0.18224 18.6929 0.520517 19.9995C14.2605 16.5595 27.2604 12.4194 23.4004 10.3994Z" fill="#438A43"/>
<path d="M16 32C20.2022 32.0005 24.2357 30.3478 27.2295 27.3989C30.2233 24.4501 31.937 20.442 32 16.2402C29.16 18.0002 19.3 22.4201 4 26.5601C5.49936 28.2668 7.34498 29.6348 9.41406 30.5728C11.4831 31.5107 13.7282 31.9971 16 32Z" fill="#438A43"/>
</g>
<defs>
<clipPath id="clip0_1769_17349">
<rect width="32" height="32" fill="white"/>
</clipPath>
</defs>
</svg>
