<svg width="25" height="25" viewBox="0 0 25 25" fill="none" xmlns="http://www.w3.org/2000/svg">
<path d="M24.4707 1.00624L2.17963 0.970703C1.23677 0.970703 0.470703 0.970703 0.470703 0.970703V24.9707H2.17963H22.7564C23.6993 24.9707 24.4707 24.9707 24.4707 24.9707V2.70106V1.85365V1.00624ZM7.72427 21.5421H4.16713V10.0886H7.72963V21.5421H7.72427ZM5.9457 8.52427C4.80463 8.52427 3.8832 7.59749 3.8832 6.46177C3.8832 5.32606 4.80463 4.39927 5.9457 4.39927C7.08142 4.39927 8.0082 5.32606 8.0082 6.46177C8.0082 7.60285 7.08677 8.52427 5.9457 8.52427ZM21.0582 21.5421H17.5011V15.9707C17.5011 14.6421 17.4743 12.9332 15.6528 12.9332C13.7993 12.9332 13.5153 14.3796 13.5153 15.8743V21.5421H9.9582V10.0886H13.3707V11.6528H13.4189C13.8957 10.7528 15.0582 9.80463 16.7886 9.80463C20.3886 9.80463 21.0582 12.1778 21.0582 15.2636V21.5421Z" fill="#255CF5"/>
</svg>
