<svg width="25" height="25" viewBox="0 0 25 25" fill="none" xmlns="http://www.w3.org/2000/svg">
<rect width="25" height="25" fill="#333333"/>
<g id="Desktop - Phase 1">
<path d="M-5276 2825.5C-5270.2 2825.5 -5265.5 2830.2 -5265.5 2836H-5290.5C-5290.5 2844 -5284.01 2850.5 -5276 2850.5V2825.5ZM-5265.5 2836V2718H-5290.5V2836H-5265.5ZM-5265.5 2482V2246H-5290.5V2482H-5265.5ZM-5265.5 2010V1774H-5290.5V2010H-5265.5ZM-5265.5 1538V1302H-5290.5V1538H-5265.5ZM-5265.5 1066V830H-5290.5V1066H-5265.5ZM-5265.5 594V358H-5290.5V594H-5265.5ZM-5265.5 122V-114H-5290.5V122H-5265.5ZM-5265.5 -350V-586H-5290.5V-350H-5265.5ZM-5265.5 -822V-1058H-5290.5V-822H-5265.5ZM-5265.5 -1294V-1530H-5290.5V-1294H-5265.5ZM-5265.5 -1766V-2002H-5290.5V-1766H-5265.5ZM-5265.5 -2238V-2474H-5290.5V-2238H-5265.5ZM-5265.5 -2710V-2946H-5290.5V-2710H-5265.5ZM-5265.5 -3182V-3418H-5290.5V-3182H-5265.5ZM-5265.5 -3654V-3890H-5290.5V-3654H-5265.5ZM-5265.5 -4126V-4362H-5290.5V-4126H-5265.5ZM-5265.5 -4598V-4834H-5290.5V-4598H-5265.5ZM-5265.5 -5070V-5306H-5290.5V-5070H-5265.5ZM-5265.5 -5542V-5778H-5290.5V-5542H-5265.5ZM-5265.5 -6014V-6250H-5290.5V-6014H-5265.5ZM-5265.5 -6486V-6722H-5290.5V-6486H-5265.5ZM-5265.5 -6958V-7194H-5290.5V-6958H-5265.5ZM-5265.5 -7430V-7666H-5290.5V-7430H-5265.5ZM-5265.5 -7902V-8138H-5290.5V-7902H-5265.5ZM-5265.5 -8374V-8610H-5290.5V-8374H-5265.5ZM-5265.5 -8846V-9082H-5290.5V-8846H-5265.5ZM-5265.5 -9318V-9554H-5290.5V-9318H-5265.5ZM-5265.5 -9790V-9908H-5290.5V-9790H-5265.5ZM-5265.5 -9908C-5265.5 -9902.2 -5270.2 -9897.5 -5276 -9897.5V-9922.5C-5284.01 -9922.5 -5290.5 -9916.01 -5290.5 -9908H-5265.5ZM-5276 -9897.5H-5156.27V-9922.5H-5276V-9897.5ZM-4916.81 -9897.5H-4677.34V-9922.5H-4916.81V-9897.5ZM-4437.88 -9897.5H-4198.42V-9922.5H-4437.88V-9897.5ZM-3958.95 -9897.5H-3719.49V-9922.5H-3958.95V-9897.5ZM-3480.03 -9897.5H-3240.56V-9922.5H-3480.03V-9897.5ZM-3001.1 -9897.5H-2761.64V-9922.5H-3001.1V-9897.5ZM-2522.17 -9897.5H-2282.71V-9922.5H-2522.17V-9897.5ZM-2043.25 -9897.5H-1803.78V-9922.5H-2043.25V-9897.5ZM-1564.32 -9897.5H-1324.86V-9922.5H-1564.32V-9897.5ZM-1085.39 -9897.5H-845.931V-9922.5H-1085.39V-9897.5ZM-606.467 -9897.5H-367.004V-9922.5H-606.467V-9897.5ZM-127.541 -9897.5H111.923V-9922.5H-127.541V-9897.5ZM351.386 -9897.5H590.85V-9922.5H351.386V-9897.5ZM830.313 -9897.5H1069.78V-9922.5H830.313V-9897.5ZM1309.24 -9897.5H1548.7V-9922.5H1309.24V-9897.5ZM1788.17 -9897.5H2027.63V-9922.5H1788.17V-9897.5ZM2267.09 -9897.5H2506.56V-9922.5H2267.09V-9897.5ZM2746.02 -9897.5H2985.48V-9922.5H2746.02V-9897.5ZM3224.95 -9897.5H3464.41V-9922.5H3224.95V-9897.5ZM3703.87 -9897.5H3943.33V-9922.5H3703.87V-9897.5ZM4182.8 -9897.5H4422.26V-9922.5H4182.8V-9897.5ZM4661.72 -9897.5H4901.19V-9922.5H4661.72V-9897.5ZM5140.65 -9897.5H5380.11V-9922.5H5140.65V-9897.5ZM5619.58 -9897.5H5859.04V-9922.5H5619.58V-9897.5ZM6098.5 -9897.5H6337.96V-9922.5H6098.5V-9897.5ZM6577.43 -9897.5H6816.89V-9922.5H6577.43V-9897.5ZM7056.35 -9897.5H7295.82V-9922.5H7056.35V-9897.5ZM7535.28 -9897.5H7774.74V-9922.5H7535.28V-9897.5ZM8014.2 -9897.5H8253.67V-9922.5H8014.2V-9897.5ZM8493.13 -9897.5H8732.59V-9922.5H8493.13V-9897.5ZM8972.06 -9897.5H9211.52V-9922.5H8972.06V-9897.5ZM9450.98 -9897.5H9690.44V-9922.5H9450.98V-9897.5ZM9929.91 -9897.5H10169.4V-9922.5H9929.91V-9897.5ZM10408.8 -9897.5H10648.3V-9922.5H10408.8V-9897.5ZM10887.8 -9897.5H11127.2V-9922.5H10887.8V-9897.5ZM11366.7 -9897.5H11606.1V-9922.5H11366.7V-9897.5ZM11845.6 -9897.5H12085.1V-9922.5H11845.6V-9897.5ZM12324.5 -9897.5H12564V-9922.5H12324.5V-9897.5ZM12803.5 -9897.5H13042.9V-9922.5H12803.5V-9897.5ZM13282.4 -9897.5H13521.9V-9922.5H13282.4V-9897.5ZM13761.3 -9897.5H14000.8V-9922.5H13761.3V-9897.5ZM14240.2 -9897.5H14479.7V-9922.5H14240.2V-9897.5ZM14719.2 -9897.5H14958.6V-9922.5H14719.2V-9897.5ZM15198.1 -9897.5H15437.6V-9922.5H15198.1V-9897.5ZM15677 -9897.5H15916.5V-9922.5H15677V-9897.5ZM16155.9 -9897.5H16395.4V-9922.5H16155.9V-9897.5ZM16634.9 -9897.5H16874.3V-9922.5H16634.9V-9897.5ZM17113.8 -9897.5H17353.3V-9922.5H17113.8V-9897.5ZM17592.7 -9897.5H17832.2V-9922.5H17592.7V-9897.5ZM18071.6 -9897.5H18311.1V-9922.5H18071.6V-9897.5ZM18550.6 -9897.5H18790V-9922.5H18550.6V-9897.5ZM19029.5 -9897.5H19269V-9922.5H19029.5V-9897.5ZM19508.4 -9897.5H19747.9V-9922.5H19508.4V-9897.5ZM19987.3 -9897.5H20226.8V-9922.5H19987.3V-9897.5ZM20466.3 -9897.5H20705.7V-9922.5H20466.3V-9897.5ZM20945.2 -9897.5H21184.7V-9922.5H20945.2V-9897.5ZM21424.1 -9897.5H21663.6V-9922.5H21424.1V-9897.5ZM21903.1 -9897.5H22142.5V-9922.5H21903.1V-9897.5ZM22382 -9897.5H22621.4V-9922.5H22382V-9897.5ZM22860.9 -9897.5H23100.4V-9922.5H22860.9V-9897.5ZM23339.8 -9897.5H23579.3V-9922.5H23339.8V-9897.5ZM23818.8 -9897.5H24058.2V-9922.5H23818.8V-9897.5ZM24297.7 -9897.5H24537.1V-9922.5H24297.7V-9897.5ZM24776.6 -9897.5H25016.1V-9922.5H24776.6V-9897.5ZM25255.5 -9897.5H25495V-9922.5H25255.5V-9897.5ZM25734.5 -9897.5H25973.9V-9922.5H25734.5V-9897.5ZM26213.4 -9897.5H26452.8V-9922.5H26213.4V-9897.5ZM26692.3 -9897.5H26931.8V-9922.5H26692.3V-9897.5ZM27171.2 -9897.5H27291V-9922.5H27171.2V-9897.5ZM27291 -9897.5C27285.2 -9897.5 27280.5 -9902.2 27280.5 -9908H27305.5C27305.5 -9916.01 27299 -9922.5 27291 -9922.5V-9897.5ZM27280.5 -9908V-9790H27305.5V-9908H27280.5ZM27280.5 -9554V-9318H27305.5V-9554H27280.5ZM27280.5 -9082V-8846H27305.5V-9082H27280.5ZM27280.5 -8610V-8374H27305.5V-8610H27280.5ZM27280.5 -8138V-7902H27305.5V-8138H27280.5ZM27280.5 -7666V-7430H27305.5V-7666H27280.5ZM27280.5 -7194V-6958H27305.5V-7194H27280.5ZM27280.5 -6722V-6486H27305.5V-6722H27280.5ZM27280.5 -6250V-6014H27305.5V-6250H27280.5ZM27280.5 -5778V-5542H27305.5V-5778H27280.5ZM27280.5 -5306V-5070H27305.5V-5306H27280.5ZM27280.5 -4834V-4598H27305.5V-4834H27280.5ZM27280.5 -4362V-4126H27305.5V-4362H27280.5ZM27280.5 -3890V-3654H27305.5V-3890H27280.5ZM27280.5 -3418V-3182H27305.5V-3418H27280.5ZM27280.5 -2946V-2710H27305.5V-2946H27280.5ZM27280.5 -2474V-2238H27305.5V-2474H27280.5ZM27280.5 -2002V-1766H27305.5V-2002H27280.5ZM27280.5 -1530V-1294H27305.5V-1530H27280.5ZM27280.5 -1058V-822H27305.5V-1058H27280.5ZM27280.5 -586V-350H27305.5V-586H27280.5ZM27280.5 -114V122H27305.5V-114H27280.5ZM27280.5 358V594H27305.5V358H27280.5ZM27280.5 830V1066H27305.5V830H27280.5ZM27280.5 1302V1538H27305.5V1302H27280.5ZM27280.5 1774V2010H27305.5V1774H27280.5ZM27280.5 2246V2482H27305.5V2246H27280.5ZM27280.5 2718V2836H27305.5V2718H27280.5ZM27280.5 2836C27280.5 2830.2 27285.2 2825.5 27291 2825.5V2850.5C27299 2850.5 27305.5 2844.01 27305.5 2836H27280.5ZM27291 2825.5H27171.3V2850.5H27291V2825.5ZM26931.8 2825.5H26692.3V2850.5H26931.8V2825.5ZM26452.9 2825.5H26213.4V2850.5H26452.9V2825.5ZM25974 2825.5H25734.5V2850.5H25974V2825.5ZM25495 2825.5H25255.6V2850.5H25495V2825.5ZM25016.1 2825.5H24776.6V2850.5H25016.1V2825.5ZM24537.2 2825.5H24297.7V2850.5H24537.2V2825.5ZM24058.2 2825.5H23818.8V2850.5H24058.2V2825.5ZM23579.3 2825.5H23339.9V2850.5H23579.3V2825.5ZM23100.4 2825.5H22860.9V2850.5H23100.4V2825.5ZM22621.5 2825.5H22382V2850.5H22621.5V2825.5ZM22142.5 2825.5H21903.1V2850.5H22142.5V2825.5ZM21663.6 2825.5H21424.2V2850.5H21663.6V2825.5ZM21184.7 2825.5H20945.2V2850.5H21184.7V2825.5ZM20705.8 2825.5H20466.3V2850.5H20705.8V2825.5ZM20226.8 2825.5H19987.4V2850.5H20226.8V2825.5ZM19747.9 2825.5H19508.4V2850.5H19747.9V2825.5ZM19269 2825.5H19029.5V2850.5H19269V2825.5ZM18790.1 2825.5H18550.6V2850.5H18790.1V2825.5ZM18311.1 2825.5H18071.7V2850.5H18311.1V2825.5ZM17832.2 2825.5H17592.7V2850.5H17832.2V2825.5ZM17353.3 2825.5H17113.8V2850.5H17353.3V2825.5ZM16874.4 2825.5H16634.9V2850.5H16874.4V2825.5ZM16395.4 2825.5H16156V2850.5H16395.4V2825.5ZM15916.5 2825.5H15677V2850.5H15916.5V2825.5ZM15437.6 2825.5H15198.1V2850.5H15437.6V2825.5ZM14958.6 2825.5H14719.2V2850.5H14958.6V2825.5ZM14479.7 2825.5H14240.3V2850.5H14479.7V2825.5ZM14000.8 2825.5H13761.3V2850.5H14000.8V2825.5ZM13521.9 2825.5H13282.4V2850.5H13521.9V2825.5ZM13042.9 2825.5H12803.5V2850.5H13042.9V2825.5ZM12564 2825.5H12324.6V2850.5H12564V2825.5ZM12085.1 2825.5H11845.6V2850.5H12085.1V2825.5ZM11606.2 2825.5H11366.7V2850.5H11606.2V2825.5ZM11127.2 2825.5H10887.8V2850.5H11127.2V2825.5ZM10648.3 2825.5H10408.9V2850.5H10648.3V2825.5ZM10169.4 2825.5H9929.93V2850.5H10169.4V2825.5ZM9690.46 2825.5H9451V2850.5H9690.46V2825.5ZM9211.54 2825.5H8972.07V2850.5H9211.54V2825.5ZM8732.61 2825.5H8493.15V2850.5H8732.61V2825.5ZM8253.69 2825.5H8014.22V2850.5H8253.69V2825.5ZM7774.76 2825.5H7535.3V2850.5H7774.76V2825.5ZM7295.83 2825.5H7056.37V2850.5H7295.83V2825.5ZM6816.91 2825.5H6577.45V2850.5H6816.91V2825.5ZM6337.98 2825.5H6098.52V2850.5H6337.98V2825.5ZM5859.06 2825.5H5619.59V2850.5H5859.06V2825.5ZM5380.13 2825.5H5140.67V2850.5H5380.13V2825.5ZM4901.21 2825.5H4661.74V2850.5H4901.21V2825.5ZM4422.28 2825.5H4182.82V2850.5H4422.28V2825.5ZM3943.35 2825.5H3703.89V2850.5H3943.35V2825.5ZM3464.43 2825.5H3224.96V2850.5H3464.43V2825.5ZM2985.5 2825.5H2746.04V2850.5H2985.5V2825.5ZM2506.58 2825.5H2267.11V2850.5H2506.58V2825.5ZM2027.65 2825.5H1788.19V2850.5H2027.65V2825.5ZM1548.72 2825.5H1309.26V2850.5H1548.72V2825.5ZM1069.8 2825.5H830.335V2850.5H1069.8V2825.5ZM590.872 2825.5H351.411V2850.5H590.872V2825.5ZM111.947 2825.5H-127.517V2850.5H111.947V2825.5ZM-366.978 2825.5H-606.441V2850.5H-366.978V2825.5ZM-845.905 2825.5H-1085.37V2850.5H-845.905V2825.5ZM-1324.83 2825.5H-1564.29V2850.5H-1324.83V2825.5ZM-1803.76 2825.5H-2043.22V2850.5H-1803.76V2825.5ZM-2282.68 2825.5H-2522.15V2850.5H-2282.68V2825.5ZM-2761.61 2825.5H-3001.07V2850.5H-2761.61V2825.5ZM-3240.53 2825.5H-3480V2850.5H-3240.53V2825.5ZM-3719.46 2825.5H-3958.92V2850.5H-3719.46V2825.5ZM-4198.39 2825.5H-4437.85V2850.5H-4198.39V2825.5ZM-4677.31 2825.5H-4916.77V2850.5H-4677.31V2825.5ZM-5156.24 2825.5H-5276V2850.5H-5156.24V2825.5ZM-5276 2813C-5263.29 2813 -5253 2823.3 -5253 2836H-5303C-5303 2850.91 -5290.92 2863 -5276 2863V2813ZM-5253 2836V2718H-5303V2836H-5253ZM-5253 2482V2246H-5303V2482H-5253ZM-5253 2010V1774H-5303V2010H-5253ZM-5253 1538V1302H-5303V1538H-5253ZM-5253 1066V830H-5303V1066H-5253ZM-5253 594V358H-5303V594H-5253ZM-5253 122V-114H-5303V122H-5253ZM-5253 -350V-586H-5303V-350H-5253ZM-5253 -822V-1058H-5303V-822H-5253ZM-5253 -1294V-1530H-5303V-1294H-5253ZM-5253 -1766V-2002H-5303V-1766H-5253ZM-5253 -2238V-2474H-5303V-2238H-5253ZM-5253 -2710V-2946H-5303V-2710H-5253ZM-5253 -3182V-3418H-5303V-3182H-5253ZM-5253 -3654V-3890H-5303V-3654H-5253ZM-5253 -4126V-4362H-5303V-4126H-5253ZM-5253 -4598V-4834H-5303V-4598H-5253ZM-5253 -5070V-5306H-5303V-5070H-5253ZM-5253 -5542V-5778H-5303V-5542H-5253ZM-5253 -6014V-6250H-5303V-6014H-5253ZM-5253 -6486V-6722H-5303V-6486H-5253ZM-5253 -6958V-7194H-5303V-6958H-5253ZM-5253 -7430V-7666H-5303V-7430H-5253ZM-5253 -7902V-8138H-5303V-7902H-5253ZM-5253 -8374V-8610H-5303V-8374H-5253ZM-5253 -8846V-9082H-5303V-8846H-5253ZM-5253 -9318V-9554H-5303V-9318H-5253ZM-5253 -9790V-9908H-5303V-9790H-5253ZM-5253 -9908C-5253 -9895.3 -5263.3 -9885 -5276 -9885V-9935C-5290.91 -9935 -5303 -9922.91 -5303 -9908H-5253ZM-5276 -9885H-5156.27V-9935H-5276V-9885ZM-4916.81 -9885H-4677.34V-9935H-4916.81V-9885ZM-4437.88 -9885H-4198.42V-9935H-4437.88V-9885ZM-3958.95 -9885H-3719.49V-9935H-3958.95V-9885ZM-3480.03 -9885H-3240.56V-9935H-3480.03V-9885ZM-3001.1 -9885H-2761.64V-9935H-3001.1V-9885ZM-2522.17 -9885H-2282.71V-9935H-2522.17V-9885ZM-2043.25 -9885H-1803.78V-9935H-2043.25V-9885ZM-1564.32 -9885H-1324.86V-9935H-1564.32V-9885ZM-1085.39 -9885H-845.931V-9935H-1085.39V-9885ZM-606.467 -9885H-367.004V-9935H-606.467V-9885ZM-127.541 -9885H111.923V-9935H-127.541V-9885ZM351.386 -9885H590.85V-9935H351.386V-9885ZM830.313 -9885H1069.78V-9935H830.313V-9885ZM1309.24 -9885H1548.7V-9935H1309.24V-9885ZM1788.17 -9885H2027.63V-9935H1788.17V-9885ZM2267.09 -9885H2506.56V-9935H2267.09V-9885ZM2746.02 -9885H2985.48V-9935H2746.02V-9885ZM3224.95 -9885H3464.41V-9935H3224.95V-9885ZM3703.87 -9885H3943.33V-9935H3703.87V-9885ZM4182.8 -9885H4422.26V-9935H4182.8V-9885ZM4661.72 -9885H4901.19V-9935H4661.72V-9885ZM5140.65 -9885H5380.11V-9935H5140.65V-9885ZM5619.58 -9885H5859.04V-9935H5619.58V-9885ZM6098.5 -9885H6337.96V-9935H6098.5V-9885ZM6577.43 -9885H6816.89V-9935H6577.43V-9885ZM7056.35 -9885H7295.82V-9935H7056.35V-9885ZM7535.28 -9885H7774.74V-9935H7535.28V-9885ZM8014.2 -9885H8253.67V-9935H8014.2V-9885ZM8493.13 -9885H8732.59V-9935H8493.13V-9885ZM8972.06 -9885H9211.52V-9935H8972.06V-9885ZM9450.98 -9885H9690.44V-9935H9450.98V-9885ZM9929.91 -9885H10169.4V-9935H9929.91V-9885ZM10408.8 -9885H10648.3V-9935H10408.8V-9885ZM10887.8 -9885H11127.2V-9935H10887.8V-9885ZM11366.7 -9885H11606.1V-9935H11366.7V-9885ZM11845.6 -9885H12085.1V-9935H11845.6V-9885ZM12324.5 -9885H12564V-9935H12324.5V-9885ZM12803.5 -9885H13042.9V-9935H12803.5V-9885ZM13282.4 -9885H13521.9V-9935H13282.4V-9885ZM13761.3 -9885H14000.8V-9935H13761.3V-9885ZM14240.2 -9885H14479.7V-9935H14240.2V-9885ZM14719.2 -9885H14958.6V-9935H14719.2V-9885ZM15198.1 -9885H15437.6V-9935H15198.1V-9885ZM15677 -9885H15916.5V-9935H15677V-9885ZM16155.9 -9885H16395.4V-9935H16155.9V-9885ZM16634.9 -9885H16874.3V-9935H16634.9V-9885ZM17113.8 -9885H17353.3V-9935H17113.8V-9885ZM17592.7 -9885H17832.2V-9935H17592.7V-9885ZM18071.6 -9885H18311.1V-9935H18071.6V-9885ZM18550.6 -9885H18790V-9935H18550.6V-9885ZM19029.5 -9885H19269V-9935H19029.5V-9885ZM19508.4 -9885H19747.9V-9935H19508.4V-9885ZM19987.3 -9885H20226.8V-9935H19987.3V-9885ZM20466.3 -9885H20705.7V-9935H20466.3V-9885ZM20945.2 -9885H21184.7V-9935H20945.2V-9885ZM21424.1 -9885H21663.6V-9935H21424.1V-9885ZM21903.1 -9885H22142.5V-9935H21903.1V-9885ZM22382 -9885H22621.4V-9935H22382V-9885ZM22860.9 -9885H23100.4V-9935H22860.9V-9885ZM23339.8 -9885H23579.3V-9935H23339.8V-9885ZM23818.8 -9885H24058.2V-9935H23818.8V-9885ZM24297.7 -9885H24537.1V-9935H24297.7V-9885ZM24776.6 -9885H25016.1V-9935H24776.6V-9885ZM25255.5 -9885H25495V-9935H25255.5V-9885ZM25734.5 -9885H25973.9V-9935H25734.5V-9885ZM26213.4 -9885H26452.8V-9935H26213.4V-9885ZM26692.3 -9885H26931.8V-9935H26692.3V-9885ZM27171.2 -9885H27291V-9935H27171.2V-9885ZM27291 -9885C27278.3 -9885 27268 -9895.3 27268 -9908H27318C27318 -9922.91 27305.9 -9935 27291 -9935V-9885ZM27268 -9908V-9790H27318V-9908H27268ZM27268 -9554V-9318H27318V-9554H27268ZM27268 -9082V-8846H27318V-9082H27268ZM27268 -8610V-8374H27318V-8610H27268ZM27268 -8138V-7902H27318V-8138H27268ZM27268 -7666V-7430H27318V-7666H27268ZM27268 -7194V-6958H27318V-7194H27268ZM27268 -6722V-6486H27318V-6722H27268ZM27268 -6250V-6014H27318V-6250H27268ZM27268 -5778V-5542H27318V-5778H27268ZM27268 -5306V-5070H27318V-5306H27268ZM27268 -4834V-4598H27318V-4834H27268ZM27268 -4362V-4126H27318V-4362H27268ZM27268 -3890V-3654H27318V-3890H27268ZM27268 -3418V-3182H27318V-3418H27268ZM27268 -2946V-2710H27318V-2946H27268ZM27268 -2474V-2238H27318V-2474H27268ZM27268 -2002V-1766H27318V-2002H27268ZM27268 -1530V-1294H27318V-1530H27268ZM27268 -1058V-822H27318V-1058H27268ZM27268 -586V-350H27318V-586H27268ZM27268 -114V122H27318V-114H27268ZM27268 358V594H27318V358H27268ZM27268 830V1066H27318V830H27268ZM27268 1302V1538H27318V1302H27268ZM27268 1774V2010H27318V1774H27268ZM27268 2246V2482H27318V2246H27268ZM27268 2718V2836H27318V2718H27268ZM27268 2836C27268 2823.3 27278.3 2813 27291 2813V2863C27305.9 2863 27318 2850.91 27318 2836H27268ZM27291 2813H27171.3V2863H27291V2813ZM26931.8 2813H26692.3V2863H26931.8V2813ZM26452.9 2813H26213.4V2863H26452.9V2813ZM25974 2813H25734.5V2863H25974V2813ZM25495 2813H25255.6V2863H25495V2813ZM25016.1 2813H24776.6V2863H25016.1V2813ZM24537.2 2813H24297.7V2863H24537.2V2813ZM24058.2 2813H23818.8V2863H24058.2V2813ZM23579.3 2813H23339.9V2863H23579.3V2813ZM23100.4 2813H22860.9V2863H23100.4V2813ZM22621.5 2813H22382V2863H22621.5V2813ZM22142.5 2813H21903.1V2863H22142.5V2813ZM21663.6 2813H21424.2V2863H21663.6V2813ZM21184.7 2813H20945.2V2863H21184.7V2813ZM20705.8 2813H20466.3V2863H20705.8V2813ZM20226.8 2813H19987.4V2863H20226.8V2813ZM19747.9 2813H19508.4V2863H19747.9V2813ZM19269 2813H19029.5V2863H19269V2813ZM18790.1 2813H18550.6V2863H18790.1V2813ZM18311.1 2813H18071.7V2863H18311.1V2813ZM17832.2 2813H17592.7V2863H17832.2V2813ZM17353.3 2813H17113.8V2863H17353.3V2813ZM16874.4 2813H16634.9V2863H16874.4V2813ZM16395.4 2813H16156V2863H16395.4V2813ZM15916.5 2813H15677V2863H15916.5V2813ZM15437.6 2813H15198.1V2863H15437.6V2813ZM14958.6 2813H14719.2V2863H14958.6V2813ZM14479.7 2813H14240.3V2863H14479.7V2813ZM14000.8 2813H13761.3V2863H14000.8V2813ZM13521.9 2813H13282.4V2863H13521.9V2813ZM13042.9 2813H12803.5V2863H13042.9V2813ZM12564 2813H12324.6V2863H12564V2813ZM12085.1 2813H11845.6V2863H12085.1V2813ZM11606.2 2813H11366.7V2863H11606.2V2813ZM11127.2 2813H10887.8V2863H11127.2V2813ZM10648.3 2813H10408.9V2863H10648.3V2813ZM10169.4 2813H9929.93V2863H10169.4V2813ZM9690.46 2813H9451V2863H9690.46V2813ZM9211.54 2813H8972.07V2863H9211.54V2813ZM8732.61 2813H8493.15V2863H8732.61V2813ZM8253.69 2813H8014.22V2863H8253.69V2813ZM7774.76 2813H7535.3V2863H7774.76V2813ZM7295.83 2813H7056.37V2863H7295.83V2813ZM6816.91 2813H6577.45V2863H6816.91V2813ZM6337.98 2813H6098.52V2863H6337.98V2813ZM5859.06 2813H5619.59V2863H5859.06V2813ZM5380.13 2813H5140.67V2863H5380.13V2813ZM4901.21 2813H4661.74V2863H4901.21V2813ZM4422.28 2813H4182.82V2863H4422.28V2813ZM3943.35 2813H3703.89V2863H3943.35V2813ZM3464.43 2813H3224.96V2863H3464.43V2813ZM2985.5 2813H2746.04V2863H2985.5V2813ZM2506.58 2813H2267.11V2863H2506.58V2813ZM2027.65 2813H1788.19V2863H2027.65V2813ZM1548.72 2813H1309.26V2863H1548.72V2813ZM1069.8 2813H830.335V2863H1069.8V2813ZM590.872 2813H351.411V2863H590.872V2813ZM111.947 2813H-127.517V2863H111.947V2813ZM-366.978 2813H-606.441V2863H-366.978V2813ZM-845.905 2813H-1085.37V2863H-845.905V2813ZM-1324.83 2813H-1564.29V2863H-1324.83V2813ZM-1803.76 2813H-2043.22V2863H-1803.76V2813ZM-2282.68 2813H-2522.15V2863H-2282.68V2813ZM-2761.61 2813H-3001.07V2863H-2761.61V2813ZM-3240.53 2813H-3480V2863H-3240.53V2813ZM-3719.46 2813H-3958.92V2863H-3719.46V2813ZM-4198.39 2813H-4437.85V2863H-4198.39V2813ZM-4677.31 2813H-4916.77V2863H-4677.31V2813ZM-5156.24 2813H-5276V2863H-5156.24V2813Z" fill="#255CF5"/>
<g id="HOME" clip-path="url(#clip0_2_3)">
<rect width="1440" height="7390" transform="translate(-1137 -7231)" fill="#1A2833"/>
<g id="Footer">
<rect width="1440" height="228.902" transform="translate(-1138 -70)" fill="#1A2833"/>
<g id="Frame 1171276799">
<g id="Frame 1171276798">
<g id="Frame">
<g id="Component 3">
<g id="Frame 1171276802">
<path id="Facebook" fill-rule="evenodd" clip-rule="evenodd" d="M24.4707 23.6456V24.9707H17.0303V15.6765H20.15L20.6175 12.0548H17.0303V9.7419C17.0303 8.6933 17.3219 7.97877 18.8255 7.97877L20.7436 7.97811V4.73819C20.4115 4.69439 19.2733 4.59568 17.9488 4.59568C15.1835 4.59568 13.2902 6.28362 13.2902 9.38365V12.0548H10.1626V15.6765H13.2902V24.9707H0.470703L0.470703 23.6456L0.470703 0.970703H3.7612H23.1462H24.4707V23.6456Z" fill="#255CF5"/>
</g>
</g>
</g>
</g>
</g>
</g>
</g>
</g>
<defs>
<clipPath id="clip0_2_3">
<rect width="1440" height="7390" fill="white" transform="translate(-1137 -7231)"/>
</clipPath>
</defs>
</svg>
