<svg width="25" height="25" viewBox="0 0 25 25" fill="none" xmlns="http://www.w3.org/2000/svg">
<path fill-rule="evenodd" clip-rule="evenodd" d="M21.6179 0.970703H0.470703V3.81695V22.1245C0.470703 23.6962 0.470703 24.9707 0.470703 24.9707H24.4707C24.4707 24.9707 24.4707 23.6962 24.4707 22.1245V0.970703H23.1737H21.6179ZM17.7201 4.72023C17.7201 4.30652 18.0559 3.9707 18.4696 3.9707H20.7195C21.1339 3.9707 21.4697 4.30652 21.4697 4.72023V6.97078C21.4697 7.3845 21.1339 7.72031 20.7195 7.72031H18.4696C18.0559 7.72031 17.7201 7.3845 17.7201 6.97078V4.72023ZM12.4979 8.39355C15.0469 8.39355 17.1135 10.4556 17.1135 12.9981C17.1135 15.5413 15.0469 17.6026 12.4979 17.6026C9.94949 17.6026 7.88289 15.5413 7.88289 12.9981C7.88289 10.4556 9.94949 8.39355 12.4979 8.39355ZM22.2203 21.9699C22.2203 22.3836 21.8844 22.7201 21.4701 22.7201H3.47025C3.05588 22.7201 2.72007 22.3836 2.72007 21.9699V10.7197H5.72014C5.32934 11.282 5.19711 12.3314 5.19711 12.9978C5.19711 17.0138 8.47278 20.2816 12.498 20.2816C16.5238 20.2816 19.7995 17.0138 19.7995 12.9978C19.7995 12.3314 19.7046 11.2984 19.2202 10.7197H22.2203V21.9699Z" fill="#255CF5"/>
</svg>
