<svg width="24" height="25" viewBox="0 0 24 25" fill="none" xmlns="http://www.w3.org/2000/svg">
<path d="M3.42857 0.5C1.5375 0.5 0 2.0375 0 3.92857V21.0714C0 22.9625 1.5375 24.5 3.42857 24.5H20.5714C22.4625 24.5 24 22.9625 24 21.0714V3.92857C24 2.0375 22.4625 0.5 20.5714 0.5H3.42857ZM11.6786 13.3411L3.43929 8.02143C3.53571 7.16429 4.25893 6.5 5.14286 6.5H18.8571C19.7411 6.5 20.4643 7.16429 20.5607 8.02143L12.3214 13.3411C12.225 13.4054 12.1125 13.4375 12 13.4375C11.8875 13.4375 11.775 13.4054 11.6786 13.3411ZM13.2536 14.7821L20.5714 10.0571V16.7857C20.5714 17.7339 19.8054 18.5 18.8571 18.5H5.14286C4.19464 18.5 3.42857 17.7339 3.42857 16.7857V10.0571L10.7464 14.7821C11.1214 15.0232 11.5554 15.1518 12 15.1518C12.4446 15.1518 12.8786 15.0232 13.2536 14.7821Z" fill="#255CF5"/>
</svg>
