<svg width="190" height="48" viewBox="0 0 190 48" fill="none" xmlns="http://www.w3.org/2000/svg">
<path d="M63.289 14.0174H59.1698C58.9984 14.0045 58.8287 14.0609 58.6953 14.175C58.5619 14.2892 58.4749 14.4525 58.4519 14.6318L55.3675 33C55.3154 33.3927 55.4999 33.6165 55.899 33.6165H60.0241C60.1967 33.6336 60.3688 33.5786 60.5032 33.4632C60.6375 33.3478 60.7233 33.1814 60.7421 33L63.8244 14.6318C63.9006 14.2412 63.688 14.0174 63.289 14.0174Z" fill="#3F873B"/>
<path d="M120.586 29.1085H107.869L108.401 25.8909H119.029C119.201 25.9037 119.371 25.8471 119.504 25.7325C119.638 25.618 119.725 25.4541 119.747 25.2744L120.253 22.1961C120.333 21.8056 120.118 21.5818 119.747 21.5818H109.119L109.65 18.531H122.356C122.44 18.5393 122.525 18.5299 122.606 18.5033C122.686 18.4767 122.761 18.4334 122.826 18.376C122.89 18.3186 122.943 18.2482 122.981 18.1689C123.019 18.0896 123.042 18.0031 123.048 17.9145L123.606 14.6399C123.686 14.2493 123.499 14.0255 123.1 14.0255H81.3114C81.1367 14.0118 80.9635 14.0672 80.8255 14.1808C80.6876 14.2944 80.5948 14.4581 80.5654 14.6399L78.1468 29.1655L73.388 14.528C73.2817 14.1648 73.043 14.0255 72.6179 14.0255H65.8656C65.6942 14.0126 65.5245 14.0689 65.3911 14.1831C65.2577 14.2972 65.1707 14.4605 65.1477 14.6399L62.0653 33.008C62.0112 33.4007 62.1977 33.6245 62.5968 33.6245H66.3168C66.4857 33.6369 66.6525 33.5794 66.7817 33.4642C66.911 33.3491 66.9924 33.1854 67.0087 33.008L69.4473 18.4972L74.2042 33.1051C74.2844 33.4683 74.5511 33.6097 74.9762 33.6097H81.7285C81.8125 33.6181 81.8972 33.6087 81.9776 33.5821C82.0581 33.5554 82.1327 33.5121 82.1969 33.4547C82.2612 33.3972 82.314 33.3268 82.352 33.2475C82.39 33.1683 82.4126 33.0818 82.4184 32.9932L84.8489 18.5246H91.8559L89.4193 32.9932C89.3652 33.3859 89.5517 33.6097 89.9507 33.6097H94.098C94.2667 33.6216 94.4333 33.5639 94.5624 33.4488C94.6915 33.3338 94.773 33.1704 94.7898 32.9932L97.2344 18.5246H104.263L101.835 32.9932C101.781 33.3859 101.967 33.6097 102.366 33.6097H119.832C119.916 33.6181 120 33.6087 120.081 33.5821C120.161 33.5554 120.236 33.5121 120.3 33.4547C120.364 33.3972 120.417 33.3268 120.455 33.2475C120.493 33.1683 120.516 33.0818 120.521 32.9932L121.081 29.7186C121.133 29.3196 120.975 29.1085 120.586 29.1085Z" fill="#3F873B"/>
<path d="M169.154 14.0182H159.662C159.465 14.0035 159.268 14.0516 159.098 14.1563C158.927 14.261 158.79 14.4174 158.705 14.6052L151.209 29.1857L148.63 14.6052C148.578 14.2125 148.339 14.0182 147.86 14.0182H125.179C125.007 14.0053 124.837 14.0617 124.704 14.1758C124.571 14.2899 124.484 14.4533 124.461 14.6326L121.378 33.0008C121.324 33.3935 121.511 33.6172 121.91 33.6172H126.031C126.203 33.6344 126.375 33.5793 126.509 33.4638C126.643 33.3484 126.729 33.182 126.747 33.0008L127.677 27.4185H131.799L135.388 33.119C135.627 33.4842 135.839 33.5961 136.345 33.5961H141.21C141.278 33.5954 141.344 33.5749 141.401 33.5371C141.458 33.4992 141.505 33.4454 141.535 33.3816C141.565 33.3178 141.578 33.2465 141.572 33.1756C141.566 33.1047 141.541 33.0368 141.501 32.9796L137.382 27.1314H137.46C141.394 27.1314 142.167 25.5078 142.698 22.3726L143.362 18.4836C143.435 18.0395 143.47 17.5894 143.468 17.1387C143.468 17.1134 143.468 17.0922 143.468 17.0669L146.745 33.0071C146.851 33.3998 147.064 33.5961 147.547 33.5961H153.607C153.802 33.6142 153.997 33.5668 154.164 33.461C154.331 33.3552 154.462 33.1962 154.538 33.0071L164.226 15.1731L161.232 32.9965C161.178 33.3892 161.364 33.613 161.764 33.613H165.885C166.057 33.6302 166.229 33.575 166.363 33.4596C166.497 33.3442 166.582 33.1778 166.601 32.9965L169.685 14.6284C169.765 14.242 169.553 14.0182 169.154 14.0182ZM137.7 20.1177L137.514 21.3211C137.275 22.666 137.009 22.9173 135.466 22.9173H128.447L129.191 18.5237H136.21C137.414 18.5237 137.781 18.663 137.781 19.3682C137.774 19.62 137.747 19.8707 137.7 20.1177Z" fill="#3F873B"/>
<path d="M184.958 14.0174H171.773C171.601 14.0045 171.432 14.0609 171.298 14.175C171.165 14.2892 171.078 14.4525 171.055 14.6318L167.973 33C167.918 33.3927 168.105 33.6165 168.504 33.6165H181.69C186.182 33.6165 187.906 31.4609 188.548 27.7049L189.85 19.9248C189.924 19.4716 189.959 19.0123 189.956 18.5525C189.972 15.6685 188.181 14.0174 184.958 14.0174ZM184.357 20.6764L183.294 26.9469C183.027 28.541 182.291 29.1004 180.502 29.1004H174.017L175.798 18.5229H182.283C183.773 18.5229 184.411 18.9452 184.411 20.0008C184.404 20.2268 184.386 20.4523 184.357 20.6764Z" fill="#3F873B"/>
<path d="M33.3422 15.5981C32.7746 15.2835 30.8073 14.2764 26.7042 12.8724C19.7053 10.4909 16.6109 9.33602 15.8749 8.83565C14.3649 7.8349 15.2452 6.70326 18.1471 5.94108C19.952 5.46393 20.5536 5.3647 33.9358 3.78124L34.9144 3.66723C31.4639 1.38954 27.497 0.126369 23.4259 0.00899795C19.3547 -0.108373 15.328 0.924345 11.7643 2.99981C8.2006 5.07528 5.22994 8.11774 3.16109 11.811C1.09224 15.5042 0.000733763 19.7134 6.05783e-06 24.001C-0.00142104 26.0671 0.249304 28.1249 0.746024 30.1237C20.2989 24.8413 38.819 18.6299 33.3422 15.5981Z" fill="#3F873B"/>
<path d="M27.8757 7.55482C27.2982 7.69206 26.7808 7.95174 27.4325 8.33177C27.601 8.47745 29.6886 9.08972 32.045 9.70833C34.3673 10.3227 37.6602 11.1862 39.3468 11.6296C39.9484 11.7837 40.6423 11.9737 41.3281 12.1722L41.8315 12.32C40.6117 10.0272 39.045 7.95912 37.1929 6.19727L36.475 6.30072C32.3599 6.87921 28.0963 7.49782 27.8757 7.55482Z" fill="#3F873B"/>
<path d="M21.909 47.9999C27.8969 48 33.6444 45.5198 37.9094 41.0951C42.1745 36.6705 44.6147 30.6568 44.7027 24.3535C40.6517 26.9926 26.6077 33.6432 4.78271 39.8334C6.91926 42.4015 9.5528 44.4589 12.5067 45.8674C15.4605 47.2759 18.6663 48.003 21.909 47.9999Z" fill="#3F873B"/>
</svg>
